<svg xmlns="http://www.w3.org/2000/svg" data-name="Layer 1" viewBox="0 0 1660 400"><path fill="#000" d="m390.64 366.377-69.575-139.145c-1.174 9.413-3.137 18.799-6.653 27.423-3.136 8.635-7.445 16.834-12.486 24.678l28.148 56.428-159.9-67.029c-15.622-6.672-27.374-18.8-33.63-34.886-5.876-16.085-5.085-33.316 2.74-48.228L197.15 69.187l57.868 116.035c7.443 15.308 8.615 32.525 2.74 48.23-9.81 26.848-32.786 34.653-34.407 35.28l44.944 18.8a104.3 104.3 0 0 0 27.372-39.99c9.789-26.247 8.22-55.634-4.307-80.752L215.117 15.22c-3.135-7.069-10.183-11.38-17.966-11.38s-14.83 4.311-17.966 11.38l-75.834 152.05c-12.486 25.076-14.054 54.463-4.308 80.755 9.789 26.249 30.113 47.436 55.904 58.39l209.888 88.176c2.346 1.174 5.086 1.569 7.826 1.569 5.479 0 10.96-2.36 14.844-6.276 5.48-6.67 6.653-16.086 3.135-23.507"/><path fill="#000" d="m122.888 311.123-58.659 24.68 28.15-56.03c-5.085-7.847-9.393-16.088-12.486-24.681-3.135-9.032-5.48-18.404-6.652-27.423L3.664 366.377c-3.913 7.464-2.345 16.834 3.135 22.716 3.913 4.31 9.393 6.276 14.831 6.276 2.74 0 5.48-.397 7.84-1.569l141.101-59.17-24.237-10.206c-8.22-3.137-16.017-7.802-23.446-13.3Zm509.647-205.651v25.105c-16.555-19.012-41.269-29.848-68.37-29.848-56.634 0-99.355 44.265-99.355 103s42.72 102.209 99.355 102.209c27.101 0 51.787-10.836 68.37-29.847v25.09h39.304V105.473h-39.304Zm-64.806 163.096c-36.702 0-64.403-28.045-64.403-65.24s28.29-65.643 64.403-65.643 64.805 28.218 64.805 65.642-27.263 65.24-64.805 65.24Zm241.249-167.839c-27.195 0-52.187 10.876-69.13 29.902v-25.159h-38.516v270.13h38.516v-99.579c16.943 19.054 41.935 29.915 69.13 29.915 56.875 0 99.77-44.29 99.77-102.998s-42.895-102.211-99.77-102.211m-3.564 37.37c36.94 0 64.804 28.219 64.804 65.642s-28.464 65.242-64.804 65.242-65.566-28.045-65.566-65.242 27.57-65.642 65.566-65.642m232.213-37.37c-27.194 0-52.189 10.876-69.157 29.902v-25.159h-38.49v270.13h38.49v-99.579c16.968 19.054 41.963 29.915 69.157 29.915 56.874 0 99.77-44.29 99.77-102.998s-42.896-102.211-99.77-102.211m-3.565 37.37c36.942 0 64.805 28.219 64.805 65.642s-28.464 65.242-64.805 65.242-65.592-28.045-65.592-65.242 27.597-65.642 65.592-65.642m206.626-114.142h22.228v32.614h-17.876c-20.453 0-29.985 9.513-29.985 30.008v18.893h47.86v34.19h-47.86v161.52h-38.904V139.675h-38.759v-34.19h38.759V88.957c0-43.744 21.094-65.001 64.537-65.001Zm225.156 81.514v34.19h-23.015c-28.464 0-45.42 18.171-45.42 48.62v112.9h-38.904v-195.71h38.904v23.101c11.615-15.111 27.798-23.1 47.009-23.1h21.427Zm98.07-4.742c-55.66 0-100.926 46.737-100.926 104.19s43.03 101.034 100.144 101.034c46.353 0 83.895-26.641 93.39-66.282l.36-1.55h-38.545l-.266.934c-5.302 19.733-27.103 33.509-52.977 33.509-34.431 0-60.665-24.611-64.284-60.017h156.325l.187-1.055c1.187-6.841 1.187-12.386 1.187-16.447 0-53.738-40.66-94.316-94.595-94.316m.006 33.804c29.225 0 52.547 19.414 54.818 45.36h-114.844c8.438-27.216 32.35-45.36 60.026-45.36m-237.747-29.062h-38.932v195.71h38.932zm0-48.901v7.55c0 22.259-19.467 41.351-38.932 41.351v-48.9z"/></svg>